<mxfile host="app.diagrams.net" modified="2023-11-24T07:48:31.517Z" agent="Mozilla/5.0 (Windows NT 10.0; Win64; x64) AppleWebKit/537.36 (KHTML, like Gecko) Chrome/119.0.0.0 Safari/537.36" etag="wJK6RWyfCGNYwK7H6K4D" version="22.1.3" type="device">
  <diagram name="Page-1" id="b520641d-4fe3-3701-9064-5fc419738815">
    <mxGraphModel dx="2474" dy="658" grid="1" gridSize="10" guides="1" tooltips="1" connect="1" arrows="1" fold="1" page="1" pageScale="1" pageWidth="1100" pageHeight="850" background="none" math="0" shadow="0">
      <root>
        <mxCell id="0" />
        <mxCell id="1" parent="0" />
        <mxCell id="8GmI4JoKVry_GNvE3FE0-47" style="edgeStyle=orthogonalEdgeStyle;rounded=0;orthogonalLoop=1;jettySize=auto;html=1;exitX=0.25;exitY=1;exitDx=0;exitDy=0;entryX=0.5;entryY=0;entryDx=0;entryDy=0;fontFamily=Helvetica;fontSize=12;fontColor=default;" parent="1" source="8GmI4JoKVry_GNvE3FE0-25" target="8GmI4JoKVry_GNvE3FE0-35" edge="1">
          <mxGeometry relative="1" as="geometry" />
        </mxCell>
        <mxCell id="8GmI4JoKVry_GNvE3FE0-49" style="edgeStyle=orthogonalEdgeStyle;rounded=0;orthogonalLoop=1;jettySize=auto;html=1;exitX=0.5;exitY=1;exitDx=0;exitDy=0;entryX=0.5;entryY=0;entryDx=0;entryDy=0;fontFamily=Helvetica;fontSize=12;fontColor=default;" parent="1" source="8GmI4JoKVry_GNvE3FE0-25" target="8GmI4JoKVry_GNvE3FE0-32" edge="1">
          <mxGeometry relative="1" as="geometry" />
        </mxCell>
        <mxCell id="8GmI4JoKVry_GNvE3FE0-50" style="edgeStyle=orthogonalEdgeStyle;rounded=0;orthogonalLoop=1;jettySize=auto;html=1;exitX=0.75;exitY=1;exitDx=0;exitDy=0;fontFamily=Helvetica;fontSize=12;fontColor=default;" parent="1" source="8GmI4JoKVry_GNvE3FE0-25" target="8GmI4JoKVry_GNvE3FE0-38" edge="1">
          <mxGeometry relative="1" as="geometry" />
        </mxCell>
        <mxCell id="P8cSrCmEh4MjeW3bicr8-27" style="edgeStyle=orthogonalEdgeStyle;rounded=0;orthogonalLoop=1;jettySize=auto;html=1;entryX=0.5;entryY=1;entryDx=0;entryDy=0;" edge="1" parent="1" source="8GmI4JoKVry_GNvE3FE0-25" target="P8cSrCmEh4MjeW3bicr8-4">
          <mxGeometry relative="1" as="geometry" />
        </mxCell>
        <mxCell id="P8cSrCmEh4MjeW3bicr8-28" style="edgeStyle=orthogonalEdgeStyle;rounded=0;orthogonalLoop=1;jettySize=auto;html=1;entryX=0.5;entryY=1;entryDx=0;entryDy=0;" edge="1" parent="1" source="8GmI4JoKVry_GNvE3FE0-25" target="P8cSrCmEh4MjeW3bicr8-7">
          <mxGeometry relative="1" as="geometry" />
        </mxCell>
        <mxCell id="P8cSrCmEh4MjeW3bicr8-29" style="edgeStyle=orthogonalEdgeStyle;rounded=0;orthogonalLoop=1;jettySize=auto;html=1;exitX=0.75;exitY=1;exitDx=0;exitDy=0;entryX=0.5;entryY=0;entryDx=0;entryDy=0;" edge="1" parent="1" source="8GmI4JoKVry_GNvE3FE0-25" target="8GmI4JoKVry_GNvE3FE0-41">
          <mxGeometry relative="1" as="geometry" />
        </mxCell>
        <mxCell id="P8cSrCmEh4MjeW3bicr8-31" style="edgeStyle=orthogonalEdgeStyle;rounded=0;orthogonalLoop=1;jettySize=auto;html=1;exitX=0.25;exitY=1;exitDx=0;exitDy=0;" edge="1" parent="1" source="8GmI4JoKVry_GNvE3FE0-25" target="8GmI4JoKVry_GNvE3FE0-29">
          <mxGeometry relative="1" as="geometry" />
        </mxCell>
        <mxCell id="P8cSrCmEh4MjeW3bicr8-38" style="edgeStyle=orthogonalEdgeStyle;rounded=0;orthogonalLoop=1;jettySize=auto;html=1;exitX=0.75;exitY=1;exitDx=0;exitDy=0;" edge="1" parent="1" source="8GmI4JoKVry_GNvE3FE0-25">
          <mxGeometry relative="1" as="geometry">
            <mxPoint x="930" y="420" as="targetPoint" />
          </mxGeometry>
        </mxCell>
        <mxCell id="8GmI4JoKVry_GNvE3FE0-25" value="&lt;b&gt;App.vue&lt;/b&gt;" style="swimlane;html=1;fontStyle=0;childLayout=stackLayout;horizontal=1;startSize=26;fillColor=#CCFF99;horizontalStack=0;resizeParent=1;resizeLast=0;collapsible=1;marginBottom=0;swimlaneFillColor=#ffffff;align=center;rounded=1;shadow=0;comic=0;labelBackgroundColor=none;strokeWidth=1;fontFamily=Verdana;fontSize=12" parent="1" vertex="1">
          <mxGeometry x="440" y="240" width="120" height="90" as="geometry" />
        </mxCell>
        <mxCell id="P8cSrCmEh4MjeW3bicr8-37" style="edgeStyle=orthogonalEdgeStyle;rounded=0;orthogonalLoop=1;jettySize=auto;html=1;" edge="1" parent="1" source="8GmI4JoKVry_GNvE3FE0-29">
          <mxGeometry relative="1" as="geometry">
            <mxPoint x="210" y="600" as="targetPoint" />
          </mxGeometry>
        </mxCell>
        <mxCell id="8GmI4JoKVry_GNvE3FE0-29" value="&lt;b&gt;products&lt;/b&gt;" style="swimlane;html=1;fontStyle=0;childLayout=stackLayout;horizontal=1;startSize=26;fillColor=#CCFF99;horizontalStack=0;resizeParent=1;resizeLast=0;collapsible=1;marginBottom=0;swimlaneFillColor=#ffffff;align=center;rounded=1;shadow=0;comic=0;labelBackgroundColor=none;strokeWidth=1;fontFamily=Verdana;fontSize=12" parent="1" vertex="1">
          <mxGeometry x="150" y="420" width="120" height="100" as="geometry" />
        </mxCell>
        <mxCell id="8GmI4JoKVry_GNvE3FE0-32" value="&lt;b&gt;map&lt;/b&gt;" style="swimlane;html=1;fontStyle=0;childLayout=stackLayout;horizontal=1;startSize=26;fillColor=#CCFF99;horizontalStack=0;resizeParent=1;resizeLast=0;collapsible=1;marginBottom=0;swimlaneFillColor=#ffffff;align=center;rounded=1;shadow=0;comic=0;labelBackgroundColor=none;strokeWidth=1;fontFamily=Verdana;fontSize=12" parent="1" vertex="1">
          <mxGeometry x="440" y="420" width="120" height="100" as="geometry" />
        </mxCell>
        <mxCell id="8GmI4JoKVry_GNvE3FE0-35" value="&lt;b&gt;exchange&lt;/b&gt;" style="swimlane;html=1;fontStyle=0;childLayout=stackLayout;horizontal=1;startSize=26;fillColor=#CCFF99;horizontalStack=0;resizeParent=1;resizeLast=0;collapsible=1;marginBottom=0;swimlaneFillColor=#ffffff;align=center;rounded=1;shadow=0;comic=0;labelBackgroundColor=none;strokeWidth=1;fontFamily=Verdana;fontSize=12" parent="1" vertex="1">
          <mxGeometry x="300" y="420" width="120" height="100" as="geometry" />
        </mxCell>
        <mxCell id="P8cSrCmEh4MjeW3bicr8-24" style="edgeStyle=orthogonalEdgeStyle;rounded=0;orthogonalLoop=1;jettySize=auto;html=1;entryX=0.5;entryY=0;entryDx=0;entryDy=0;" edge="1" parent="1" source="8GmI4JoKVry_GNvE3FE0-38" target="P8cSrCmEh4MjeW3bicr8-15">
          <mxGeometry relative="1" as="geometry" />
        </mxCell>
        <mxCell id="P8cSrCmEh4MjeW3bicr8-40" style="edgeStyle=orthogonalEdgeStyle;rounded=0;orthogonalLoop=1;jettySize=auto;html=1;exitX=0.5;exitY=1;exitDx=0;exitDy=0;entryX=0.5;entryY=0;entryDx=0;entryDy=0;" edge="1" parent="1" source="8GmI4JoKVry_GNvE3FE0-38" target="P8cSrCmEh4MjeW3bicr8-35">
          <mxGeometry relative="1" as="geometry" />
        </mxCell>
        <mxCell id="P8cSrCmEh4MjeW3bicr8-44" style="edgeStyle=orthogonalEdgeStyle;rounded=0;orthogonalLoop=1;jettySize=auto;html=1;exitX=0.5;exitY=1;exitDx=0;exitDy=0;entryX=0.5;entryY=0;entryDx=0;entryDy=0;" edge="1" parent="1" source="8GmI4JoKVry_GNvE3FE0-38" target="P8cSrCmEh4MjeW3bicr8-41">
          <mxGeometry relative="1" as="geometry" />
        </mxCell>
        <mxCell id="P8cSrCmEh4MjeW3bicr8-48" style="edgeStyle=orthogonalEdgeStyle;rounded=0;orthogonalLoop=1;jettySize=auto;html=1;" edge="1" parent="1" source="8GmI4JoKVry_GNvE3FE0-38" target="P8cSrCmEh4MjeW3bicr8-47">
          <mxGeometry relative="1" as="geometry" />
        </mxCell>
        <mxCell id="8GmI4JoKVry_GNvE3FE0-38" value="&lt;b&gt;community&lt;/b&gt;" style="swimlane;html=1;fontStyle=0;childLayout=stackLayout;horizontal=1;startSize=26;fillColor=#CCFF99;horizontalStack=0;resizeParent=1;resizeLast=0;collapsible=1;marginBottom=0;swimlaneFillColor=#ffffff;align=center;rounded=1;shadow=0;comic=0;labelBackgroundColor=none;strokeWidth=1;fontFamily=Verdana;fontSize=12" parent="1" vertex="1">
          <mxGeometry x="590" y="420" width="120" height="100" as="geometry" />
        </mxCell>
        <mxCell id="8GmI4JoKVry_GNvE3FE0-41" value="&lt;b&gt;증권&lt;/b&gt;" style="swimlane;html=1;fontStyle=0;childLayout=stackLayout;horizontal=1;startSize=26;fillColor=#CCFF99;horizontalStack=0;resizeParent=1;resizeLast=0;collapsible=1;marginBottom=0;swimlaneFillColor=#ffffff;align=center;rounded=1;shadow=0;comic=0;labelBackgroundColor=none;strokeWidth=1;fontFamily=Verdana;fontSize=12" parent="1" vertex="1">
          <mxGeometry x="730" y="420" width="120" height="100" as="geometry" />
        </mxCell>
        <mxCell id="P8cSrCmEh4MjeW3bicr8-4" value="&lt;b&gt;SignUpView&lt;/b&gt;" style="swimlane;html=1;fontStyle=0;childLayout=stackLayout;horizontal=1;startSize=26;fillColor=#CCFF99;horizontalStack=0;resizeParent=1;resizeLast=0;collapsible=1;marginBottom=0;swimlaneFillColor=#ffffff;align=center;rounded=1;shadow=0;comic=0;labelBackgroundColor=none;strokeWidth=1;fontFamily=Verdana;fontSize=12" vertex="1" parent="1">
          <mxGeometry x="300" y="60" width="120" height="100" as="geometry" />
        </mxCell>
        <mxCell id="P8cSrCmEh4MjeW3bicr8-7" value="&lt;b&gt;LoginView&lt;/b&gt;" style="swimlane;html=1;fontStyle=0;childLayout=stackLayout;horizontal=1;startSize=26;fillColor=#CCFF99;horizontalStack=0;resizeParent=1;resizeLast=0;collapsible=1;marginBottom=0;swimlaneFillColor=#ffffff;align=center;rounded=1;shadow=0;comic=0;labelBackgroundColor=none;strokeWidth=1;fontFamily=Verdana;fontSize=12" vertex="1" parent="1">
          <mxGeometry x="570" y="60" width="120" height="100" as="geometry" />
        </mxCell>
        <mxCell id="P8cSrCmEh4MjeW3bicr8-15" value="&lt;b&gt;Create&lt;/b&gt;" style="swimlane;html=1;fontStyle=0;childLayout=stackLayout;horizontal=1;startSize=26;fillColor=#CCFF99;horizontalStack=0;resizeParent=1;resizeLast=0;collapsible=1;marginBottom=0;swimlaneFillColor=#ffffff;align=center;rounded=1;shadow=0;comic=0;labelBackgroundColor=none;strokeWidth=1;fontFamily=Verdana;fontSize=12" vertex="1" parent="1">
          <mxGeometry x="670" y="600" width="120" height="100" as="geometry" />
        </mxCell>
        <mxCell id="P8cSrCmEh4MjeW3bicr8-18" value="&lt;b&gt;ProductsDetail&lt;/b&gt;" style="swimlane;html=1;fontStyle=0;childLayout=stackLayout;horizontal=1;startSize=26;fillColor=#CCFF99;horizontalStack=0;resizeParent=1;resizeLast=0;collapsible=1;marginBottom=0;swimlaneFillColor=#ffffff;align=center;rounded=1;shadow=0;comic=0;labelBackgroundColor=none;strokeWidth=1;fontFamily=Verdana;fontSize=12" vertex="1" parent="1">
          <mxGeometry x="150" y="600" width="120" height="100" as="geometry" />
        </mxCell>
        <mxCell id="P8cSrCmEh4MjeW3bicr8-39" style="edgeStyle=orthogonalEdgeStyle;rounded=0;orthogonalLoop=1;jettySize=auto;html=1;exitX=0.5;exitY=1;exitDx=0;exitDy=0;" edge="1" parent="1" source="P8cSrCmEh4MjeW3bicr8-32">
          <mxGeometry relative="1" as="geometry">
            <mxPoint x="930" y="600" as="targetPoint" />
          </mxGeometry>
        </mxCell>
        <mxCell id="P8cSrCmEh4MjeW3bicr8-53" style="edgeStyle=orthogonalEdgeStyle;rounded=0;orthogonalLoop=1;jettySize=auto;html=1;entryX=0.5;entryY=0;entryDx=0;entryDy=0;" edge="1" parent="1" source="P8cSrCmEh4MjeW3bicr8-32" target="P8cSrCmEh4MjeW3bicr8-51">
          <mxGeometry relative="1" as="geometry" />
        </mxCell>
        <mxCell id="P8cSrCmEh4MjeW3bicr8-32" value="&lt;b&gt;Profile&lt;/b&gt;" style="swimlane;html=1;fontStyle=0;childLayout=stackLayout;horizontal=1;startSize=26;fillColor=#CCFF99;horizontalStack=0;resizeParent=1;resizeLast=0;collapsible=1;marginBottom=0;swimlaneFillColor=#ffffff;align=center;rounded=1;shadow=0;comic=0;labelBackgroundColor=none;strokeWidth=1;fontFamily=Verdana;fontSize=12" vertex="1" parent="1">
          <mxGeometry x="870" y="420" width="120" height="100" as="geometry" />
        </mxCell>
        <mxCell id="P8cSrCmEh4MjeW3bicr8-34" value="&lt;b&gt;community&lt;/b&gt;" style="swimlane;html=1;fontStyle=0;childLayout=stackLayout;horizontal=1;startSize=26;fillColor=#CCFF99;horizontalStack=0;resizeParent=1;resizeLast=0;collapsible=1;marginBottom=0;swimlaneFillColor=#ffffff;align=center;rounded=1;shadow=0;comic=0;labelBackgroundColor=none;strokeWidth=1;fontFamily=Verdana;fontSize=12" vertex="1" parent="1">
          <mxGeometry x="-740" y="235" width="120" height="100" as="geometry" />
        </mxCell>
        <mxCell id="P8cSrCmEh4MjeW3bicr8-35" value="&lt;b&gt;Update&lt;/b&gt;" style="swimlane;html=1;fontStyle=0;childLayout=stackLayout;horizontal=1;startSize=26;fillColor=#CCFF99;horizontalStack=0;resizeParent=1;resizeLast=0;collapsible=1;marginBottom=0;swimlaneFillColor=#ffffff;align=center;rounded=1;shadow=0;comic=0;labelBackgroundColor=none;strokeWidth=1;fontFamily=Verdana;fontSize=12" vertex="1" parent="1">
          <mxGeometry x="520" y="600" width="120" height="100" as="geometry" />
        </mxCell>
        <mxCell id="P8cSrCmEh4MjeW3bicr8-36" value="&lt;b&gt;UpdateProfile&lt;/b&gt;" style="swimlane;html=1;fontStyle=0;childLayout=stackLayout;horizontal=1;startSize=26;fillColor=#CCFF99;horizontalStack=0;resizeParent=1;resizeLast=0;collapsible=1;marginBottom=0;swimlaneFillColor=#ffffff;align=center;rounded=1;shadow=0;comic=0;labelBackgroundColor=none;strokeWidth=1;fontFamily=Verdana;fontSize=12" vertex="1" parent="1">
          <mxGeometry x="870" y="600" width="120" height="100" as="geometry" />
        </mxCell>
        <mxCell id="P8cSrCmEh4MjeW3bicr8-41" value="&lt;b&gt;Detail&lt;/b&gt;" style="swimlane;html=1;fontStyle=0;childLayout=stackLayout;horizontal=1;startSize=26;fillColor=#CCFF99;horizontalStack=0;resizeParent=1;resizeLast=0;collapsible=1;marginBottom=0;swimlaneFillColor=#ffffff;align=center;rounded=1;shadow=0;comic=0;labelBackgroundColor=none;strokeWidth=1;fontFamily=Verdana;fontSize=12" vertex="1" parent="1">
          <mxGeometry x="520" y="750" width="120" height="100" as="geometry" />
        </mxCell>
        <mxCell id="P8cSrCmEh4MjeW3bicr8-42" value="&lt;b&gt;community&lt;/b&gt;" style="swimlane;html=1;fontStyle=0;childLayout=stackLayout;horizontal=1;startSize=26;fillColor=#CCFF99;horizontalStack=0;resizeParent=1;resizeLast=0;collapsible=1;marginBottom=0;swimlaneFillColor=#ffffff;align=center;rounded=1;shadow=0;comic=0;labelBackgroundColor=none;strokeWidth=1;fontFamily=Verdana;fontSize=12" vertex="1" parent="1">
          <mxGeometry x="300" y="600" width="120" height="100" as="geometry" />
        </mxCell>
        <mxCell id="P8cSrCmEh4MjeW3bicr8-43" value="&lt;b&gt;community&lt;/b&gt;" style="swimlane;html=1;fontStyle=0;childLayout=stackLayout;horizontal=1;startSize=26;fillColor=#CCFF99;horizontalStack=0;resizeParent=1;resizeLast=0;collapsible=1;marginBottom=0;swimlaneFillColor=#ffffff;align=center;rounded=1;shadow=0;comic=0;labelBackgroundColor=none;strokeWidth=1;fontFamily=Verdana;fontSize=12" vertex="1" parent="1">
          <mxGeometry x="140" y="750" width="120" height="100" as="geometry" />
        </mxCell>
        <mxCell id="P8cSrCmEh4MjeW3bicr8-46" value="&lt;b&gt;CommentList&lt;/b&gt;" style="swimlane;html=1;fontStyle=0;childLayout=stackLayout;horizontal=1;startSize=26;fillColor=#CCFF99;horizontalStack=0;resizeParent=1;resizeLast=0;collapsible=1;marginBottom=0;swimlaneFillColor=#ffffff;align=center;rounded=1;shadow=0;comic=0;labelBackgroundColor=none;strokeWidth=1;fontFamily=Verdana;fontSize=12" vertex="1" parent="1">
          <mxGeometry x="670" y="890" width="120" height="100" as="geometry" />
        </mxCell>
        <mxCell id="P8cSrCmEh4MjeW3bicr8-49" style="edgeStyle=orthogonalEdgeStyle;rounded=0;orthogonalLoop=1;jettySize=auto;html=1;entryX=0.5;entryY=0;entryDx=0;entryDy=0;" edge="1" parent="1" source="P8cSrCmEh4MjeW3bicr8-47" target="P8cSrCmEh4MjeW3bicr8-46">
          <mxGeometry relative="1" as="geometry" />
        </mxCell>
        <mxCell id="P8cSrCmEh4MjeW3bicr8-47" value="&lt;b&gt;ArticleList&lt;/b&gt;" style="swimlane;html=1;fontStyle=0;childLayout=stackLayout;horizontal=1;startSize=26;fillColor=#CCFF99;horizontalStack=0;resizeParent=1;resizeLast=0;collapsible=1;marginBottom=0;swimlaneFillColor=#ffffff;align=center;rounded=1;shadow=0;comic=0;labelBackgroundColor=none;strokeWidth=1;fontFamily=Verdana;fontSize=12" vertex="1" parent="1">
          <mxGeometry x="670" y="750" width="120" height="100" as="geometry" />
        </mxCell>
        <mxCell id="P8cSrCmEh4MjeW3bicr8-50" value="&lt;b&gt;Chart1&lt;/b&gt;" style="swimlane;html=1;fontStyle=0;childLayout=stackLayout;horizontal=1;startSize=26;fillColor=#CCFF99;horizontalStack=0;resizeParent=1;resizeLast=0;collapsible=1;marginBottom=0;swimlaneFillColor=#ffffff;align=center;rounded=1;shadow=0;comic=0;labelBackgroundColor=none;strokeWidth=1;fontFamily=Verdana;fontSize=12" vertex="1" parent="1">
          <mxGeometry x="1030" y="600" width="120" height="100" as="geometry" />
        </mxCell>
        <mxCell id="P8cSrCmEh4MjeW3bicr8-51" value="&lt;b&gt;Chart&lt;/b&gt;" style="swimlane;html=1;fontStyle=0;childLayout=stackLayout;horizontal=1;startSize=26;fillColor=#CCFF99;horizontalStack=0;resizeParent=1;resizeLast=0;collapsible=1;marginBottom=0;swimlaneFillColor=#ffffff;align=center;rounded=1;shadow=0;comic=0;labelBackgroundColor=none;strokeWidth=1;fontFamily=Verdana;fontSize=12" vertex="1" parent="1">
          <mxGeometry x="1180" y="600" width="120" height="100" as="geometry" />
        </mxCell>
        <mxCell id="P8cSrCmEh4MjeW3bicr8-52" style="edgeStyle=orthogonalEdgeStyle;rounded=0;orthogonalLoop=1;jettySize=auto;html=1;entryX=0.583;entryY=0;entryDx=0;entryDy=0;entryPerimeter=0;" edge="1" parent="1" source="P8cSrCmEh4MjeW3bicr8-32" target="P8cSrCmEh4MjeW3bicr8-50">
          <mxGeometry relative="1" as="geometry" />
        </mxCell>
      </root>
    </mxGraphModel>
  </diagram>
</mxfile>
